<?xml version="1.0" encoding="UTF-8" standalone="no"?>
<!-- Created with Inkscape (http://www.inkscape.org/) -->

<svg
   xmlns:dc="http://purl.org/dc/elements/1.1/"
   xmlns:cc="http://creativecommons.org/ns#"
   xmlns:rdf="http://www.w3.org/1999/02/22-rdf-syntax-ns#"
   xmlns:svg="http://www.w3.org/2000/svg"
   xmlns="http://www.w3.org/2000/svg"
   xmlns:xlink="http://www.w3.org/1999/xlink"
   xmlns:sodipodi="http://sodipodi.sourceforge.net/DTD/sodipodi-0.dtd"
   xmlns:inkscape="http://www.inkscape.org/namespaces/inkscape"
   width="744.09448819"
   height="1052.3622047"
   id="svg2"
   version="1.1"
   inkscape:version="0.48.2 r9819"
   sodipodi:docname="objectos.svg">
  <defs
     id="defs4">
    <linearGradient
       id="linearGradient3773">
      <stop
         style="stop-color:#2b1100;stop-opacity:0.38260868;"
         offset="0"
         id="stop3775" />
      <stop
         style="stop-color:#2b1100;stop-opacity:0;"
         offset="1"
         id="stop3777" />
    </linearGradient>
    <linearGradient
       inkscape:collect="always"
       xlink:href="#linearGradient3773"
       id="linearGradient3779"
       x1="58.380695"
       y1="467.36218"
       x2="63.428907"
       y2="467.36218"
       gradientUnits="userSpaceOnUse"
       gradientTransform="matrix(0.44972205,0,0,1,32.125609,0)" />
    <linearGradient
       inkscape:collect="always"
       xlink:href="#linearGradient3773"
       id="linearGradient3783"
       gradientUnits="userSpaceOnUse"
       gradientTransform="matrix(0.44972205,0,0,1,-134.63578,0)"
       x1="58.380695"
       y1="467.36218"
       x2="63.428907"
       y2="467.36218" />
    <linearGradient
       inkscape:collect="always"
       xlink:href="#linearGradient3773"
       id="linearGradient3787"
       gradientUnits="userSpaceOnUse"
       gradientTransform="matrix(0.44972205,0,0,1,-196.25509,0)"
       x1="58.380695"
       y1="467.36218"
       x2="63.428907"
       y2="467.36218" />
    <linearGradient
       inkscape:collect="always"
       xlink:href="#linearGradient3773"
       id="linearGradient3791"
       gradientUnits="userSpaceOnUse"
       gradientTransform="matrix(0.44972205,0,0,1,93.744914,0)"
       x1="58.380695"
       y1="467.36218"
       x2="63.428907"
       y2="467.36218" />
    <linearGradient
       inkscape:collect="always"
       xlink:href="#linearGradient3773"
       id="linearGradient3809"
       gradientUnits="userSpaceOnUse"
       gradientTransform="matrix(0.44972205,0,0,1,-27.517248,0)"
       x1="58.380695"
       y1="467.36218"
       x2="63.428907"
       y2="467.36218" />
    <linearGradient
       inkscape:collect="always"
       xlink:href="#linearGradient3773"
       id="linearGradient3811"
       gradientUnits="userSpaceOnUse"
       gradientTransform="matrix(0.44972205,0,0,1,-74.992923,0)"
       x1="58.380695"
       y1="467.36218"
       x2="63.428907"
       y2="467.36218" />
    <linearGradient
       inkscape:collect="always"
       xlink:href="#linearGradient3773"
       id="linearGradient3029"
       gradientUnits="userSpaceOnUse"
       gradientTransform="matrix(0.44972205,0,0,1,-10.183661,0)"
       x1="58.380695"
       y1="467.36218"
       x2="63.428907"
       y2="467.36218" />
    <linearGradient
       inkscape:collect="always"
       xlink:href="#linearGradient3773"
       id="linearGradient3031"
       gradientUnits="userSpaceOnUse"
       gradientTransform="matrix(0.44972205,0,0,1,-92.326515,0)"
       x1="58.380695"
       y1="467.36218"
       x2="63.428907"
       y2="467.36218" />
    <linearGradient
       inkscape:collect="always"
       xlink:href="#linearGradient3773"
       id="linearGradient11093"
       gradientUnits="userSpaceOnUse"
       gradientTransform="matrix(0.44972205,0,0,1,54.102053,0)"
       x1="58.380695"
       y1="467.36218"
       x2="63.428907"
       y2="467.36218" />
    <linearGradient
       inkscape:collect="always"
       xlink:href="#linearGradient3773"
       id="linearGradient11095"
       gradientUnits="userSpaceOnUse"
       gradientTransform="matrix(0.44972205,0,0,1,-156.61223,0)"
       x1="58.380695"
       y1="467.36218"
       x2="63.428907"
       y2="467.36218" />
    <linearGradient
       inkscape:collect="always"
       xlink:href="#linearGradient3773"
       id="linearGradient3047"
       gradientUnits="userSpaceOnUse"
       gradientTransform="matrix(0.44972205,0,0,1,32.125609,-68.571429)"
       x1="58.380695"
       y1="467.36218"
       x2="63.428907"
       y2="467.36218" />
    <linearGradient
       inkscape:collect="always"
       xlink:href="#linearGradient3773"
       id="linearGradient3049"
       gradientUnits="userSpaceOnUse"
       gradientTransform="matrix(0.44972205,0,0,1,-134.63578,-68.571429)"
       x1="58.380695"
       y1="467.36218"
       x2="63.428907"
       y2="467.36218" />
    <linearGradient
       inkscape:collect="always"
       xlink:href="#linearGradient3773"
       id="linearGradient3073"
       gradientUnits="userSpaceOnUse"
       gradientTransform="matrix(0.44972205,0,0,1,32.125609,-68.571429)"
       x1="58.380695"
       y1="467.36218"
       x2="63.428907"
       y2="467.36218" />
    <linearGradient
       inkscape:collect="always"
       xlink:href="#linearGradient3773"
       id="linearGradient3075"
       gradientUnits="userSpaceOnUse"
       gradientTransform="matrix(0.44972205,0,0,1,-134.63578,-68.571429)"
       x1="58.380695"
       y1="467.36218"
       x2="63.428907"
       y2="467.36218" />
    <linearGradient
       inkscape:collect="always"
       xlink:href="#linearGradient3773"
       id="linearGradient7715"
       gradientUnits="userSpaceOnUse"
       gradientTransform="matrix(0.44972205,0,0,1,54.102053,0)"
       x1="58.380695"
       y1="467.36218"
       x2="63.428907"
       y2="467.36218" />
    <linearGradient
       inkscape:collect="always"
       xlink:href="#linearGradient3773"
       id="linearGradient7717"
       gradientUnits="userSpaceOnUse"
       gradientTransform="matrix(0.44972205,0,0,1,-156.61223,0)"
       x1="58.380695"
       y1="467.36218"
       x2="63.428907"
       y2="467.36218" />
    <linearGradient
       inkscape:collect="always"
       xlink:href="#linearGradient3773"
       id="linearGradient3066"
       gradientUnits="userSpaceOnUse"
       gradientTransform="matrix(0.44972205,0,0,1,54.102053,0)"
       x1="58.380695"
       y1="467.36218"
       x2="63.428907"
       y2="467.36218" />
    <linearGradient
       inkscape:collect="always"
       xlink:href="#linearGradient3773"
       id="linearGradient3068"
       gradientUnits="userSpaceOnUse"
       gradientTransform="matrix(0.44972205,0,0,1,-156.61223,0)"
       x1="58.380695"
       y1="467.36218"
       x2="63.428907"
       y2="467.36218" />
  </defs>
  <sodipodi:namedview
     id="base"
     pagecolor="#ffffff"
     bordercolor="#666666"
     borderopacity="1.0"
     inkscape:pageopacity="0.0"
     inkscape:pageshadow="2"
     inkscape:zoom="1.4"
     inkscape:cx="-192.11214"
     inkscape:cy="631.4987"
     inkscape:document-units="px"
     inkscape:current-layer="layer1"
     showgrid="false"
     inkscape:window-width="1366"
     inkscape:window-height="721"
     inkscape:window-x="-4"
     inkscape:window-y="-4"
     inkscape:window-maximized="1" />
  <metadata
     id="metadata7">
    <rdf:RDF>
      <cc:Work
         rdf:about="">
        <dc:format>image/svg+xml</dc:format>
        <dc:type
           rdf:resource="http://purl.org/dc/dcmitype/StillImage" />
        <dc:title></dc:title>
      </cc:Work>
    </rdf:RDF>
  </metadata>
  <g
     inkscape:label="Layer 1"
     inkscape:groupmode="layer"
     id="layer1">
    <rect
       y="442.36218"
       x="58.380695"
       height="50"
       width="50"
       id="rect2995"
       style="fill:#d45500;fill-opacity:1;fill-rule:evenodd;stroke:none"
       inkscape:export-filename="C:\xampp\htdocs\primeiro_jogo\imagens\laranja_1.png"
       inkscape:export-xdpi="90"
       inkscape:export-ydpi="90" />
    <g
       transform="translate(-61.071129,0.88849121)"
       id="g2997"
       style="fill:#ff7f2a">
      <path
         sodipodi:type="arc"
         style="fill:#ff7f2a;fill-opacity:1;fill-rule:evenodd;stroke:none"
         id="path2999"
         sodipodi:cx="158.97276"
         sodipodi:cy="450.9426"
         sodipodi:rx="6.1871843"
         sodipodi:ry="6.1871843"
         d="m 165.15995,450.9426 c 0,3.41708 -2.7701,6.18718 -6.18719,6.18718 -3.41708,0 -6.18718,-2.7701 -6.18718,-6.18718 0,-3.41709 2.7701,-6.18719 6.18718,-6.18719 3.41709,0 6.18719,2.7701 6.18719,6.18719 z" />
      <path
         d="m 165.15995,450.9426 c 0,3.41708 -2.7701,6.18718 -6.18719,6.18718 -3.41708,0 -6.18718,-2.7701 -6.18718,-6.18718 0,-3.41709 2.7701,-6.18719 6.18718,-6.18719 3.41709,0 6.18719,2.7701 6.18719,6.18719 z"
         sodipodi:ry="6.1871843"
         sodipodi:rx="6.1871843"
         sodipodi:cy="450.9426"
         sodipodi:cx="158.97276"
         id="path3001"
         style="fill:#ff7f2a;fill-opacity:1;fill-rule:evenodd;stroke:none"
         sodipodi:type="arc"
         transform="matrix(2.6734694,0,0,2.6734694,-284.72387,-733.93051)" />
    </g>
    <rect
       style="fill:url(#linearGradient3779);fill-opacity:1;fill-rule:evenodd;stroke:none"
       id="rect3003"
       width="2.270292"
       height="50"
       x="58.380695"
       y="442.36218" />
    <rect
       y="442.36218"
       x="-108.38069"
       height="50"
       width="2.270292"
       id="rect3781"
       style="fill:url(#linearGradient3783);fill-opacity:1;fill-rule:evenodd;stroke:none"
       transform="scale(-1,1)" />
    <g
       id="g8814">
      <rect
         inkscape:export-ydpi="90"
         inkscape:export-xdpi="90"
         inkscape:export-filename="C:\xampp\htdocs\primeiro_jogo\imagens\inactivo.png"
         y="442.36218"
         x="120"
         height="50"
         width="50"
         id="rect2985"
         style="fill:#004455;fill-opacity:1;fill-rule:evenodd;stroke:none" />
      <g
         transform="translate(0.54817656,0.88849121)"
         id="g2991">
        <path
           sodipodi:type="arc"
           style="fill:#006680;fill-opacity:1;fill-rule:evenodd;stroke:none"
           id="path2987"
           sodipodi:cx="158.97276"
           sodipodi:cy="450.9426"
           sodipodi:rx="6.1871843"
           sodipodi:ry="6.1871843"
           d="m 165.15995,450.9426 c 0,3.41708 -2.7701,6.18718 -6.18719,6.18718 -3.41708,0 -6.18718,-2.7701 -6.18718,-6.18718 0,-3.41709 2.7701,-6.18719 6.18718,-6.18719 3.41709,0 6.18719,2.7701 6.18719,6.18719 z" />
        <path
           d="m 165.15995,450.9426 c 0,3.41708 -2.7701,6.18718 -6.18719,6.18718 -3.41708,0 -6.18718,-2.7701 -6.18718,-6.18718 0,-3.41709 2.7701,-6.18719 6.18718,-6.18719 3.41709,0 6.18719,2.7701 6.18719,6.18719 z"
           sodipodi:ry="6.1871843"
           sodipodi:rx="6.1871843"
           sodipodi:cy="450.9426"
           sodipodi:cx="158.97276"
           id="path2989"
           style="fill:#006680;fill-opacity:1;fill-rule:evenodd;stroke:none"
           sodipodi:type="arc"
           transform="matrix(2.6734694,0,0,2.6734694,-284.72387,-733.93051)" />
      </g>
      <rect
         y="442.36218"
         x="-170"
         height="50"
         width="2.270292"
         id="rect3785"
         style="fill:url(#linearGradient3787);fill-opacity:1;fill-rule:evenodd;stroke:none"
         transform="scale(-1,1)" />
      <rect
         style="fill:url(#linearGradient3791);fill-opacity:1;fill-rule:evenodd;stroke:none"
         id="rect3789"
         width="2.270292"
         height="50"
         x="120"
         y="442.36218" />
    </g>
    <rect
       inkscape:export-ydpi="90"
       inkscape:export-xdpi="90"
       inkscape:export-filename="C:\xampp\htdocs\primeiro_jogo\imagens\estrela.png"
       style="fill:#ffcc00;fill-opacity:1;fill-rule:evenodd;stroke:none"
       id="rect3797"
       width="50"
       height="50"
       x="-1.2621619"
       y="442.36218" />
    <g
       style="fill:#ffff00"
       id="g3799"
       transform="translate(-120.71399,0.88849121)">
      <path
         d="m 165.15995,450.9426 c 0,3.41708 -2.7701,6.18718 -6.18719,6.18718 -3.41708,0 -6.18718,-2.7701 -6.18718,-6.18718 0,-3.41709 2.7701,-6.18719 6.18718,-6.18719 3.41709,0 6.18719,2.7701 6.18719,6.18719 z"
         sodipodi:ry="6.1871843"
         sodipodi:rx="6.1871843"
         sodipodi:cy="450.9426"
         sodipodi:cx="158.97276"
         id="path3801"
         style="fill:#ffff00;fill-opacity:1;fill-rule:evenodd;stroke:none"
         sodipodi:type="arc" />
      <path
         transform="matrix(2.6734694,0,0,2.6734694,-284.72387,-733.93051)"
         sodipodi:type="arc"
         style="fill:#ffff00;fill-opacity:1;fill-rule:evenodd;stroke:none"
         id="path3803"
         sodipodi:cx="158.97276"
         sodipodi:cy="450.9426"
         sodipodi:rx="6.1871843"
         sodipodi:ry="6.1871843"
         d="m 165.15995,450.9426 c 0,3.41708 -2.7701,6.18718 -6.18719,6.18718 -3.41708,0 -6.18718,-2.7701 -6.18718,-6.18718 0,-3.41709 2.7701,-6.18719 6.18718,-6.18719 3.41709,0 6.18719,2.7701 6.18719,6.18719 z" />
    </g>
    <rect
       y="442.36218"
       x="-1.2621619"
       height="50"
       width="2.270292"
       id="rect3805"
       style="fill:url(#linearGradient3809);fill-opacity:1;fill-rule:evenodd;stroke:none" />
    <rect
       transform="scale(-1,1)"
       style="fill:url(#linearGradient3811);fill-opacity:1;fill-rule:evenodd;stroke:none"
       id="rect3807"
       width="2.270292"
       height="50"
       x="-48.737835"
       y="442.36218" />
    <rect
       inkscape:export-ydpi="90"
       inkscape:export-xdpi="90"
       inkscape:export-filename="C:\xampp\htdocs\primeiro_jogo\imagens\dou.png"
       y="442.36218"
       x="-66.071426"
       height="50"
       width="50"
       id="rect3017"
       style="fill:#ff0000;fill-opacity:1;fill-rule:evenodd;stroke:none" />
    <g
       transform="translate(-185.52325,0.88849121)"
       id="g3019"
       style="fill:#ff8080"
       inkscape:export-filename="C:\xampp\htdocs\primeiro_jogo\imagens\salto.png"
       inkscape:export-xdpi="90"
       inkscape:export-ydpi="90">
      <path
         sodipodi:type="arc"
         style="fill:#ff8080;fill-opacity:1;fill-rule:evenodd;stroke:none"
         id="path3021"
         sodipodi:cx="158.97276"
         sodipodi:cy="450.9426"
         sodipodi:rx="6.1871843"
         sodipodi:ry="6.1871843"
         d="m 165.15995,450.9426 c 0,3.41708 -2.7701,6.18718 -6.18719,6.18718 -3.41708,0 -6.18718,-2.7701 -6.18718,-6.18718 0,-3.41709 2.7701,-6.18719 6.18718,-6.18719 3.41709,0 6.18719,2.7701 6.18719,6.18719 z" />
      <path
         d="m 165.15995,450.9426 c 0,3.41708 -2.7701,6.18718 -6.18719,6.18718 -3.41708,0 -6.18718,-2.7701 -6.18718,-6.18718 0,-3.41709 2.7701,-6.18719 6.18718,-6.18719 3.41709,0 6.18719,2.7701 6.18719,6.18719 z"
         sodipodi:ry="6.1871843"
         sodipodi:rx="6.1871843"
         sodipodi:cy="450.9426"
         sodipodi:cx="158.97276"
         id="path3023"
         style="fill:#ff8080;fill-opacity:1;fill-rule:evenodd;stroke:none"
         sodipodi:type="arc"
         transform="matrix(2.6734694,0,0,2.6734694,-284.72387,-733.93051)" />
    </g>
    <rect
       y="442.36218"
       x="16.071428"
       height="50"
       width="2.270292"
       id="rect3025"
       style="fill:url(#linearGradient3029);fill-opacity:1;fill-rule:evenodd;stroke:none"
       transform="scale(-1,1)"
       inkscape:export-filename="C:\xampp\htdocs\primeiro_jogo\imagens\salto.png"
       inkscape:export-xdpi="90"
       inkscape:export-ydpi="90" />
    <rect
       style="fill:url(#linearGradient3031);fill-opacity:1;fill-rule:evenodd;stroke:none"
       id="rect3027"
       width="2.270292"
       height="50"
       x="-66.071426"
       y="442.36218"
       inkscape:export-filename="C:\xampp\htdocs\primeiro_jogo\imagens\salto.png"
       inkscape:export-xdpi="90"
       inkscape:export-ydpi="90" />
    <g
       id="g11097"
       inkscape:export-filename="C:\xampp\htdocs\primeiro_jogo\imagens\cinzento.png"
       inkscape:export-xdpi="90"
       inkscape:export-ydpi="90">
      <rect
         inkscape:export-ydpi="90"
         inkscape:export-xdpi="90"
         inkscape:export-filename="C:\xampp\htdocs\primeiro_jogo\imagens\salto.png"
         y="442.36218"
         x="-130.35715"
         height="50"
         width="50"
         id="rect11081"
         style="fill:#4d4d4d;fill-opacity:1;fill-rule:evenodd;stroke:none" />
      <g
         transform="translate(-249.80896,0.88849121)"
         id="g11083"
         style="fill:#999999"
         inkscape:export-filename="C:\xampp\htdocs\primeiro_jogo\imagens\salto.png"
         inkscape:export-xdpi="90"
         inkscape:export-ydpi="90">
        <path
           sodipodi:type="arc"
           style="fill:#999999;fill-opacity:1;fill-rule:evenodd;stroke:none"
           id="path11085"
           sodipodi:cx="158.97276"
           sodipodi:cy="450.9426"
           sodipodi:rx="6.1871843"
           sodipodi:ry="6.1871843"
           d="m 165.15995,450.9426 c 0,3.41708 -2.7701,6.18718 -6.18719,6.18718 -3.41708,0 -6.18718,-2.7701 -6.18718,-6.18718 0,-3.41709 2.7701,-6.18719 6.18718,-6.18719 3.41709,0 6.18719,2.7701 6.18719,6.18719 z" />
        <path
           d="m 165.15995,450.9426 c 0,3.41708 -2.7701,6.18718 -6.18719,6.18718 -3.41708,0 -6.18718,-2.7701 -6.18718,-6.18718 0,-3.41709 2.7701,-6.18719 6.18718,-6.18719 3.41709,0 6.18719,2.7701 6.18719,6.18719 z"
           sodipodi:ry="6.1871843"
           sodipodi:rx="6.1871843"
           sodipodi:cy="450.9426"
           sodipodi:cx="158.97276"
           id="path11087"
           style="fill:#999999;fill-opacity:1;fill-rule:evenodd;stroke:none"
           sodipodi:type="arc"
           transform="matrix(2.6734694,0,0,2.6734694,-284.72387,-733.93051)" />
      </g>
      <rect
         y="442.36218"
         x="80.35714"
         height="50"
         width="2.270292"
         id="rect11089"
         style="fill:url(#linearGradient11093);fill-opacity:1;fill-rule:evenodd;stroke:none"
         transform="scale(-1,1)"
         inkscape:export-filename="C:\xampp\htdocs\primeiro_jogo\imagens\salto.png"
         inkscape:export-xdpi="90"
         inkscape:export-ydpi="90" />
      <rect
         style="fill:url(#linearGradient11095);fill-opacity:1;fill-rule:evenodd;stroke:none"
         id="rect11091"
         width="2.270292"
         height="50"
         x="-130.35715"
         y="442.36218"
         inkscape:export-filename="C:\xampp\htdocs\primeiro_jogo\imagens\salto.png"
         inkscape:export-xdpi="90"
         inkscape:export-ydpi="90" />
    </g>
    <g
       id="g3065"
       transform="translate(0,5.7142639)"
       inkscape:export-filename="C:\xampp\htdocs\primeiro_jogo\imagens\laranja_2.png"
       inkscape:export-xdpi="90"
       inkscape:export-ydpi="90">
      <rect
         y="373.79074"
         x="58.380695"
         height="50"
         width="50"
         id="rect3035"
         style="fill:#aa4400;fill-opacity:1;fill-rule:evenodd;stroke:none"
         inkscape:export-filename="C:\xampp\htdocs\primeiro_jogo\imagens\activo.png"
         inkscape:export-xdpi="90"
         inkscape:export-ydpi="90" />
      <g
         transform="translate(-61.071129,-67.682937)"
         id="g3037"
         style="fill:#ff6600">
        <path
           sodipodi:type="arc"
           style="fill:#ff6600;fill-opacity:1;fill-rule:evenodd;stroke:none"
           id="path3039"
           sodipodi:cx="158.97276"
           sodipodi:cy="450.9426"
           sodipodi:rx="6.1871843"
           sodipodi:ry="6.1871843"
           d="m 165.15995,450.9426 c 0,3.41708 -2.7701,6.18718 -6.18719,6.18718 -3.41708,0 -6.18718,-2.7701 -6.18718,-6.18718 0,-3.41709 2.7701,-6.18719 6.18718,-6.18719 3.41709,0 6.18719,2.7701 6.18719,6.18719 z" />
        <path
           d="m 165.15995,450.9426 c 0,3.41708 -2.7701,6.18718 -6.18719,6.18718 -3.41708,0 -6.18718,-2.7701 -6.18718,-6.18718 0,-3.41709 2.7701,-6.18719 6.18718,-6.18719 3.41709,0 6.18719,2.7701 6.18719,6.18719 z"
           sodipodi:ry="6.1871843"
           sodipodi:rx="6.1871843"
           sodipodi:cy="450.9426"
           sodipodi:cx="158.97276"
           id="path3041"
           style="fill:#ff6600;fill-opacity:1;fill-rule:evenodd;stroke:none"
           sodipodi:type="arc"
           transform="matrix(2.6734694,0,0,2.6734694,-284.72387,-733.93051)" />
      </g>
      <rect
         style="fill:url(#linearGradient3073);fill-opacity:1;fill-rule:evenodd;stroke:none"
         id="rect3043"
         width="2.270292"
         height="50"
         x="58.380695"
         y="373.79074" />
      <rect
         y="373.79074"
         x="-108.38069"
         height="50"
         width="2.270292"
         id="rect3045"
         style="fill:url(#linearGradient3075);fill-opacity:1;fill-rule:evenodd;stroke:none"
         transform="scale(-1,1)" />
    </g>
    <g
       id="g3059"
       inkscape:export-filename="C:\xampp\htdocs\primeiro_jogo\imagens\laranja_3.png"
       inkscape:export-xdpi="90"
       inkscape:export-ydpi="90">
      <rect
         inkscape:export-ydpi="90"
         inkscape:export-xdpi="90"
         inkscape:export-filename="C:\xampp\htdocs\primeiro_jogo\imagens\activo.png"
         style="fill:#803300;fill-opacity:1;fill-rule:evenodd;stroke:none"
         id="rect3051"
         width="50"
         height="50"
         x="58.380695"
         y="316.64789" />
      <g
         style="fill:#aa4400"
         id="g3053"
         transform="translate(-61.071129,-124.82579)">
        <path
           d="m 165.15995,450.9426 c 0,3.41708 -2.7701,6.18718 -6.18719,6.18718 -3.41708,0 -6.18718,-2.7701 -6.18718,-6.18718 0,-3.41709 2.7701,-6.18719 6.18718,-6.18719 3.41709,0 6.18719,2.7701 6.18719,6.18719 z"
           sodipodi:ry="6.1871843"
           sodipodi:rx="6.1871843"
           sodipodi:cy="450.9426"
           sodipodi:cx="158.97276"
           id="path3055"
           style="fill:#aa4400;fill-opacity:1;fill-rule:evenodd;stroke:none"
           sodipodi:type="arc" />
        <path
           transform="matrix(2.6734694,0,0,2.6734694,-284.72387,-733.93051)"
           sodipodi:type="arc"
           style="fill:#aa4400;fill-opacity:1;fill-rule:evenodd;stroke:none"
           id="path3057"
           sodipodi:cx="158.97276"
           sodipodi:cy="450.9426"
           sodipodi:rx="6.1871843"
           sodipodi:ry="6.1871843"
           d="m 165.15995,450.9426 c 0,3.41708 -2.7701,6.18718 -6.18719,6.18718 -3.41708,0 -6.18718,-2.7701 -6.18718,-6.18718 0,-3.41709 2.7701,-6.18719 6.18718,-6.18719 3.41709,0 6.18719,2.7701 6.18719,6.18719 z" />
      </g>
    </g>
    <g
       inkscape:export-ydpi="90"
       inkscape:export-xdpi="90"
       inkscape:export-filename="C:\xampp\htdocs\primeiro_jogo\imagens\cinzento.png"
       id="g7701"
       transform="translate(-133.57143,0)">
      <rect
         style="fill:#000000;fill-opacity:1;fill-rule:evenodd;stroke:none"
         id="rect7703"
         width="50"
         height="50"
         x="-130.35715"
         y="442.36218"
         inkscape:export-filename="C:\xampp\htdocs\primeiro_jogo\imagens\salto.png"
         inkscape:export-xdpi="90"
         inkscape:export-ydpi="90" />
      <g
         inkscape:export-ydpi="90"
         inkscape:export-xdpi="90"
         inkscape:export-filename="C:\xampp\htdocs\primeiro_jogo\imagens\salto.png"
         style="fill:#999999"
         id="g7705"
         transform="translate(-249.80896,0.88849121)">
        <path
           d="m 165.15995,450.9426 c 0,3.41708 -2.7701,6.18718 -6.18719,6.18718 -3.41708,0 -6.18718,-2.7701 -6.18718,-6.18718 0,-3.41709 2.7701,-6.18719 6.18718,-6.18719 3.41709,0 6.18719,2.7701 6.18719,6.18719 z"
           sodipodi:ry="6.1871843"
           sodipodi:rx="6.1871843"
           sodipodi:cy="450.9426"
           sodipodi:cx="158.97276"
           id="path7707"
           style="fill:#1a1a1a;fill-opacity:1;fill-rule:evenodd;stroke:none"
           sodipodi:type="arc" />
        <path
           transform="matrix(2.6734694,0,0,2.6734694,-284.72387,-733.93051)"
           sodipodi:type="arc"
           style="fill:#1a1a1a;fill-opacity:1;fill-rule:evenodd;stroke:none"
           id="path7709"
           sodipodi:cx="158.97276"
           sodipodi:cy="450.9426"
           sodipodi:rx="6.1871843"
           sodipodi:ry="6.1871843"
           d="m 165.15995,450.9426 c 0,3.41708 -2.7701,6.18718 -6.18719,6.18718 -3.41708,0 -6.18718,-2.7701 -6.18718,-6.18718 0,-3.41709 2.7701,-6.18719 6.18718,-6.18719 3.41709,0 6.18719,2.7701 6.18719,6.18719 z" />
      </g>
      <rect
         inkscape:export-ydpi="90"
         inkscape:export-xdpi="90"
         inkscape:export-filename="C:\xampp\htdocs\primeiro_jogo\imagens\salto.png"
         transform="scale(-1,1)"
         style="fill:url(#linearGradient7715);fill-opacity:1;fill-rule:evenodd;stroke:none"
         id="rect7711"
         width="2.270292"
         height="50"
         x="80.35714"
         y="442.36218" />
      <rect
         inkscape:export-ydpi="90"
         inkscape:export-xdpi="90"
         inkscape:export-filename="C:\xampp\htdocs\primeiro_jogo\imagens\salto.png"
         y="442.36218"
         x="-130.35715"
         height="50"
         width="2.270292"
         id="rect7713"
         style="fill:url(#linearGradient7717);fill-opacity:1;fill-rule:evenodd;stroke:none" />
    </g>
    <g
       transform="translate(-133.57143,-73.571429)"
       id="g3052"
       inkscape:export-filename="C:\xampp\htdocs\primeiro_jogo\imagens\verde.png"
       inkscape:export-xdpi="90"
       inkscape:export-ydpi="90">
      <rect
         inkscape:export-ydpi="90"
         inkscape:export-xdpi="90"
         inkscape:export-filename="C:\xampp\htdocs\primeiro_jogo\imagens\salto.png"
         y="442.36218"
         x="-130.35715"
         height="50"
         width="50"
         id="rect3054"
         style="fill:#aad400;fill-opacity:1;fill-rule:evenodd;stroke:none" />
      <g
         transform="translate(-249.80896,0.88849121)"
         id="g3056"
         style="fill:#999999"
         inkscape:export-filename="C:\xampp\htdocs\primeiro_jogo\imagens\salto.png"
         inkscape:export-xdpi="90"
         inkscape:export-ydpi="90">
        <path
           sodipodi:type="arc"
           style="fill:#ccff00;fill-opacity:1;fill-rule:evenodd;stroke:none"
           id="path3058"
           sodipodi:cx="158.97276"
           sodipodi:cy="450.9426"
           sodipodi:rx="6.1871843"
           sodipodi:ry="6.1871843"
           d="m 165.15995,450.9426 c 0,3.41708 -2.7701,6.18718 -6.18719,6.18718 -3.41708,0 -6.18718,-2.7701 -6.18718,-6.18718 0,-3.41709 2.7701,-6.18719 6.18718,-6.18719 3.41709,0 6.18719,2.7701 6.18719,6.18719 z" />
        <path
           d="m 165.15995,450.9426 c 0,3.41708 -2.7701,6.18718 -6.18719,6.18718 -3.41708,0 -6.18718,-2.7701 -6.18718,-6.18718 0,-3.41709 2.7701,-6.18719 6.18718,-6.18719 3.41709,0 6.18719,2.7701 6.18719,6.18719 z"
           sodipodi:ry="6.1871843"
           sodipodi:rx="6.1871843"
           sodipodi:cy="450.9426"
           sodipodi:cx="158.97276"
           id="path3060"
           style="fill:#ccff00;fill-opacity:1;fill-rule:evenodd;stroke:none"
           sodipodi:type="arc"
           transform="matrix(2.6734694,0,0,2.6734694,-284.72387,-733.93051)" />
      </g>
      <rect
         y="442.36218"
         x="80.35714"
         height="50"
         width="2.270292"
         id="rect3062"
         style="fill:url(#linearGradient3066);fill-opacity:1;fill-rule:evenodd;stroke:none"
         transform="scale(-1,1)"
         inkscape:export-filename="C:\xampp\htdocs\primeiro_jogo\imagens\salto.png"
         inkscape:export-xdpi="90"
         inkscape:export-ydpi="90" />
      <rect
         style="fill:url(#linearGradient3068);fill-opacity:1;fill-rule:evenodd;stroke:none"
         id="rect3064"
         width="2.270292"
         height="50"
         x="-130.35715"
         y="442.36218"
         inkscape:export-filename="C:\xampp\htdocs\primeiro_jogo\imagens\salto.png"
         inkscape:export-xdpi="90"
         inkscape:export-ydpi="90" />
    </g>
  </g>
</svg>
